<svg width="27" height="16" viewBox="0 0 27 16" xmlns="http://www.w3.org/2000/svg"><title>Combined Shape</title><path d="M25.927 6.14a2.164 2.164 0 0 1 0 3.74l-5.934 3.51a1.396 1.396 0 0 1-1.914-.499 1.405 1.405 0 0 1 .498-1.92l5.02-2.96-5.051-2.968a1.404 1.404 0 0 1 .018-2.429 1.394 1.394 0 0 1 1.398.01l5.965 3.517zm-17-3.01a1.406 1.406 0 0 1-.504 1.92l-5.02 2.96 5.051 2.968c.666.392.889 1.252.498 1.92a1.396 1.396 0 0 1-1.914.498L1.073 9.881a2.164 2.164 0 0 1 0-3.74l5.94-3.51a1.394 1.394 0 0 1 1.914.499zm6.63-3.086a1.406 1.406 0 0 1 1 1.733l-3.405 13.171a1.396 1.396 0 1 1-2.336.649 1.407 1.407 0 0 1-.373-1.353l3.411-13.19a1.394 1.394 0 0 1 1.703-1.01z" fill="#F86A60" fill-rule="nonzero"/></svg>