<svg width="63" height="72" xmlns="http://www.w3.org/2000/svg"><defs><linearGradient x1="50%" y1="0%" x2="50%" y2="100%" id="a"><stop stop-color="#77BE76" offset="0%"/><stop stop-color="#438A42" offset="100%"/></linearGradient></defs><g fill="none" fill-rule="evenodd"><path d="M-8-4h80v80H-8z"/><g fill="url(#a)" opacity=".903"><path d="M23.9 16.804a82.12 82.12 0 0 1 7.484 3.522 97.325 97.325 0 0 1 7.856-3.617c-2.183-9.14-5.407-13.242-7.683-13.242-1.236 0-2.692 1.284-4.039 3.547a3.34 3.34 0 0 1 .62 1.964c0 1.725-1.246 3.118-2.937 3.41-.448 1.323-.857 2.757-1.302 4.416m-.642 3.729a93.24 93.24 0 0 0-.69 5.177 24.11 24.11 0 0 1 1.814-1.07 58.944 58.944 0 0 1 3.335-2.042 60.188 60.188 0 0 0-4.46-2.065m11.95 2.009c1.11.656 2.25 1.344 3.391 2.033.74.47 1.488.945 2.236 1.438-.219-2.143-.472-3.99-.774-5.663a76.149 76.149 0 0 0-4.852 2.192m-26.69-5.83c-2.253 0-3.912.563-4.552 1.546-1.316 2.043.847 7.53 8.617 14.845 1.928-1.68 4.028-3.273 6.049-4.772.258-3.307.657-6.39 1.189-9.185-4.392-1.595-8.286-2.435-11.303-2.435m36.06 11.975c2.257 1.662 4.091 3.115 5.69 4.51 7.866-7.322 10.044-12.855 8.702-14.942-.778-1.279-2.904-1.543-4.552-1.543-1.658 0-3.795.32-6.351.951-1.298.337-2.967.794-4.684 1.401.532 2.878.934 6.11 1.195 9.623m.301 4.896c.022.7.043 1.398.088 2.096 0 .705.001 1.408-.01 2.096a86.3 86.3 0 0 0 2.672-2.2 266.07 266.07 0 0 0-2.757-2.194l.007.202m-29.596 2c.975.855 2.036 1.693 3.15 2.549-.015-.772-.015-1.553-.015-2.397 0-.934 0-1.838.018-2.731-1.094.87-2.136 1.733-3.153 2.58m6.984 5.287a54.413 54.413 0 0 0 4.091 2.727c.58.338 1.163.683 1.738 1.024 1.208.715 2.357 1.394 3.473 2.013a60.438 60.438 0 0 0 5.16-3.018c1.386-.865 2.873-1.85 4.552-3.012.005-.694.024-1.4.041-2.115.024-.88.046-1.774.046-2.667 0-1.795-.077-3.602-.156-5.2-.48-.319-.962-.646-1.447-.975-1.007-.683-2.048-1.39-3.107-2.05-.565-.33-1.144-.673-1.716-1.011-1.211-.717-2.363-1.4-3.484-2.019-1.728.919-3.483 1.992-5.185 3.033a60.34 60.34 0 0 0-4.005 2.646c-.084 1.753-.16 3.61-.16 5.488 0 1.734.07 3.367.159 5.136m.2 4.47a96.59 96.59 0 0 0 .704 5.322 80.248 80.248 0 0 0 4.51-2.08 62.674 62.674 0 0 1-3.371-2.064 55.57 55.57 0 0 1-1.843-1.177m12.74 3.245c1.633.826 3.232 1.53 4.914 2.24.277-1.787.518-3.705.718-5.73-.74.487-1.477.956-2.2 1.414-1.167.768-2.314 1.436-3.431 2.076m8.174 3.457c4.32 1.523 8.099 2.324 10.958 2.324 2.324 0 3.893-.524 4.542-1.515.91-1.45.08-4.29-2.227-7.65-.14.027-.285.043-.437.043-1.935 0-3.509-1.556-3.509-3.467 0-.324.024-.748.174-1.18-.82-.858-1.748-1.783-2.727-2.75a79.203 79.203 0 0 1-5.578 4.492c-.26 3.482-.662 6.741-1.196 9.703M6.2 45.279c-2.313 3.365-3.147 6.21-2.229 7.675.602.97 2.231 1.503 4.589 1.503 2.952 0 6.802-.803 11.171-2.326-.466-2.56-.812-5.466-1.101-9.252a75.86 75.86 0 0 1-6.066-4.795c-.92.837-1.766 1.717-2.5 2.498.162.4.252.848.252 1.285 0 1.911-1.574 3.467-3.51 3.467-.194 0-.397-.02-.606-.055m17.665 8.961C25.954 63.688 29.336 68 31.647 68c2.328 0 5.6-4.21 7.777-13.595a89.347 89.347 0 0 1-7.956-3.706 75.964 75.964 0 0 1-7.602 3.541m7.781 17.316c-4.735 0-8.787-5.87-11.186-16.154-4.68 1.636-8.696 2.465-11.944 2.465-3.762 0-6.32-1.04-7.605-3.088-1.728-2.75-.806-6.934 2.592-11.82a3.206 3.206 0 0 1-.207-1.181c0-1.912 1.575-3.467 3.51-3.467.143 0 .3 0 .467.014a47.435 47.435 0 0 1 2.724-2.77C1.59 27.589-1.8 20.4.92 16.23c1.32-2.026 3.954-3.098 7.62-3.098 3.298 0 7.463.857 12.097 2.484a46.807 46.807 0 0 1 1.25-4.457 3.477 3.477 0 0 1-.77-2.181c0-1.827 1.438-3.328 3.255-3.458C26.567 1.857 29.013 0 31.647 0c4.612 0 8.595 5.61 10.996 15.44a56.014 56.014 0 0 1 4.525-1.366c2.686-.638 5.079-.96 7.129-.96 3.746 0 6.342 1.046 7.714 3.11 2.683 4.164-.71 11.32-9.077 19.246 1.01.972 1.9 1.906 2.758 2.816a3.04 3.04 0 0 1 .616-.064c1.935 0 3.51 1.555 3.51 3.467a3.3 3.3 0 0 1-.303 1.362c3.375 4.975 4.208 9.03 2.406 11.747-1.322 2.007-3.948 3.069-7.593 3.069-3.206 0-7.194-.791-11.585-2.293-2.392 10.174-6.411 15.982-11.096 15.982"/><path d="M31.648 33.511c-1.334 0-2.34.956-2.34 2.223 0 1.296 1.027 2.31 2.34 2.31 1.333 0 2.34-.955 2.34-2.222 0-1.296-1.028-2.31-2.34-2.31m0 8.088c-3.275 0-5.94-2.632-5.94-5.866 0-3.235 2.665-5.867 5.94-5.867 3.275 0 5.94 2.632 5.94 5.867 0 3.234-2.665 5.866-5.94 5.866"/></g></g></svg>