<svg width="16" height="16" viewBox="0 0 16 16" xmlns="http://www.w3.org/2000/svg"><title>Shape</title><path d="M12.8 9.6a3.18 3.18 0 0 0-2.4 1.105L6.326 8.669a3.114 3.114 0 0 0 0-1.339L10.4 5.294A3.18 3.18 0 0 0 12.8 6.4c1.764 0 3.2-1.436 3.2-3.2C16 1.435 14.564 0 12.8 0a3.204 3.204 0 0 0-3.2 3.2c0 .23.026.453.074.669L5.6 5.905A3.182 3.182 0 0 0 3.2 4.8 3.204 3.204 0 0 0 0 8c0 1.764 1.436 3.2 3.2 3.2a3.18 3.18 0 0 0 2.4-1.106l4.074 2.036c-.048.217-.074.44-.074.67 0 1.764 1.436 3.2 3.2 3.2 1.764 0 3.2-1.436 3.2-3.2 0-1.764-1.436-3.2-3.2-3.2z" fill="#F86A60" fill-rule="nonzero"/></svg>