<?xml version="1.0" encoding="UTF-8"?>
<svg width="27px" height="16px" viewBox="0 0 27 16" version="1.1" xmlns="http://www.w3.org/2000/svg" xmlns:xlink="http://www.w3.org/1999/xlink">
    <!-- Generator: Sketch 48.1 (47250) - http://www.bohemiancoding.com/sketch -->
    <title>Combined Shape</title>
    <desc>Created with Sketch.</desc>
    <defs></defs>
    <g id="GrumpyReport_1440" stroke="none" stroke-width="1" fill="none" fill-rule="evenodd" transform="translate(-1234.000000, -6396.000000)">
        <g id="Content" transform="translate(110.000000, 90.000000)" fill="#F86A60" fill-rule="nonzero">
            <g id="Geographical-Observation-Grumpy" transform="translate(0.000000, 5584.000000)">
                <g id="Buttons-under-the-Grumpy-Map" transform="translate(775.000000, 701.000000)">
                    <g id="Button-Embed" transform="translate(272.000000, 0.000000)">
                        <g id="Group-13" transform="translate(24.000000, 16.000000)">
                            <g id="Embed" transform="translate(53.000000, 5.000000)">
                                <path d="M25.9274019,6.1405277 C26.591429,6.52773423 27,7.24006099 27,8.01055821 C27,8.78105543 26.591429,9.49338219 25.9274019,9.88058872 L19.9933175,13.3900127 C19.3275614,13.7824726 18.4707151,13.5592082 18.0794976,12.8913378 C17.6882802,12.2234674 17.9108376,11.3638998 18.5765937,10.9714399 L23.5972641,8.01055821 L18.5455252,5.04344313 C18.1148565,4.78956607 17.8519152,4.32448529 17.8557489,3.82339223 C17.8595825,3.32229917 18.1296085,2.86132178 18.5641108,2.6141058 C18.9986131,2.36688983 19.5315803,2.37099324 19.962249,2.62487033 L25.9274019,6.1405277 Z M8.9267161,3.12977857 C9.11408796,3.4512508 9.16632471,3.83427914 9.0719108,4.19442531 C8.97749688,4.55457148 8.74418419,4.86226553 8.42340632,5.04967656 L3.40273595,8.01055821 L8.45447482,10.9776733 C9.12023086,11.3701333 9.34278833,12.2297008 8.95157086,12.8975713 C8.56035339,13.5654417 7.70350707,13.788706 7.03775101,13.3962461 L1.07259809,9.88058872 C0.408571046,9.49338219 -3.55271368e-15,8.78105543 -3.55271368e-15,8.01055821 C-3.55271368e-15,7.24006099 0.408571046,6.52773423 1.07259809,6.1405277 L7.0128962,2.63110377 C7.33259733,2.44261168 7.71384973,2.38925675 8.07276818,2.4827784 C8.43168664,2.57630004 8.73886496,2.80903605 8.9267161,3.12977857 Z M15.556735,0.0442282215 C15.9204618,0.13771109 16.2314184,0.374032549 16.4195907,0.699983138 C16.6077631,1.02593373 16.6573335,1.41411427 16.5571409,1.77712316 L13.1520327,14.9483714 C13.0266061,15.4338557 12.6525242,15.8153347 12.1707003,15.9491092 C11.6888763,16.0828836 11.1725107,15.9486299 10.8161134,15.5969201 C10.4597161,15.2452103 10.3174324,14.7294775 10.4428591,14.2439933 L13.854181,1.0540447 C13.9463532,0.693574782 14.1775537,0.384630574 14.4968783,0.195233175 C14.816203,0.00583577511 15.1974701,-0.0484859292 15.556735,0.0442282215 Z" id="Combined-Shape"></path>
                            </g>
                        </g>
                    </g>
                </g>
            </g>
        </g>
    </g>
</svg>