<svg width="18" height="15" xmlns="http://www.w3.org/2000/svg"><defs><linearGradient x1="50%" y1="0%" x2="50%" y2="116.833%" id="a"><stop stop-color="#77BE76" offset="0%"/><stop stop-color="#438A42" offset="100%"/></linearGradient></defs><g fill="none" fill-rule="evenodd"><path d="M1-1h16v16H1z"/><path d="M17.167 16H.833A.832.832 0 0 1 0 15.17v-.31c0-.458.373-.83.833-.83h1.45a8.083 8.083 0 0 1-1.63-4.864C.653 4.656 4.322 1 8.847 1s8.193 3.656 8.193 8.166a8.081 8.081 0 0 1-1.63 4.865h1.757c.46 0 .833.371.833.83v.309c0 .458-.373.83-.833.83zM5 8.938c0 .41.333.744.743.743H7.92v2.176c0 .41.332.743.743.743h.276c.41 0 .743-.333.743-.743V9.681h2.176c.41 0 .743-.332.743-.743v-.276a.743.743 0 0 0-.743-.743H9.681V5.743A.743.743 0 0 0 8.938 5h-.276a.743.743 0 0 0-.744.743v2.176H5.743A.743.743 0 0 0 5 8.662v.276z" fill="url(#a)" fill-rule="nonzero" transform="translate(0 -1)"/></g></svg>