<svg width="16" height="14" xmlns="http://www.w3.org/2000/svg"><g fill="none" fill-rule="evenodd"><path d="M0 0h16v16H0z"/><g fill-rule="nonzero"><path d="M2 .087C1.573.087 0 1.597 0 2v8c0 .42 1.573 2 2 2l4.4-.17 1.333 1.925c.036.087.143.14.25.14.106 0 .195-.07.248-.14l1.387-1.925L14 12c.409 0 1.982-1.58 1.982-2V2c0-.403-1.573-1.913-1.982-1.913H2z" fill="#F86A60"/><g transform="translate(3 3)" fill="#FFF"><path d="M4.986 4C3.5 4 2.303 4.663 2.012 5.531c-.072.183.182.366.508.366h4.968c.327 0 .544-.183.508-.366C7.67 4.663 6.436 4 4.986 4z"/><circle cx="1" cy="1" r="1"/><circle cx="9" cy="1" r="1"/></g></g></g></svg>