<svg width="18" height="15" xmlns="http://www.w3.org/2000/svg"><defs><linearGradient x1="50%" y1="0%" x2="50%" y2="98.934%" id="a"><stop stop-color="#FEE882" offset="0%"/><stop stop-color="#FDCA48" offset="100%"/></linearGradient></defs><g fill="none" fill-rule="evenodd"><path d="M1-1h16v16H1z"/><path d="M17.042 11.305l-.635.635-.218.21-1.746-1.746c.989-2.24.683-4.84-.798-6.79l-.035-.034a6.728 6.728 0 0 0-.55-.635c-.201-.2-.415-.388-.639-.561l-.03-.03a6.663 6.663 0 0 0-1.485-.846l-.097-.038-.184-.068-.126-.046-.155-.051-.137-.043-.154-.042-.136-.037a9.067 9.067 0 0 0-.275-.062L9.526 1.1l-.183-.031-.12-.017-.183-.023-.11-.011L8.71 1h-.708a6.655 6.655 0 0 0-4.904 2.466L1.643 2.011A.85.85 0 1 0 .442 3.213l1.744 1.745-.02.044a4.422 4.422 0 0 0-.115.284c-.019.05-.043.107-.06.16-.02.053-.032.095-.049.143a4.455 4.455 0 0 0-.099.33c-.014.055-.027.096-.038.145-.011.05-.035.149-.05.224 0 .03-.013.059-.018.088a6.717 6.717 0 0 0 .158 3.255v.022c.029.095.06.188.091.281l.011.03c.232.645.562 1.251.978 1.796L.28 14.46a.892.892 0 1 0 1.26 1.26l2.7-2.703a6.722 6.722 0 0 0 6.286.998l.03-.011c.087-.03.174-.064.26-.1l.068-.028.216-.094.094-.044.183-.092.11-.059.162-.09.124-.073.138-.086.14-.09.113-.079.154-.11.081-.062.184-.142.018-.014a6.874 6.874 0 0 0 .928-.942l1.468 1.46-.228.22-.635.634a.393.393 0 0 0 .243.67l3.131.284a.448.448 0 0 0 .49-.488l-.286-3.13a.393.393 0 0 0-.67-.244zm-4.782-.675L9.416 7.785 7.815 9.398a.851.851 0 0 1-1.204 0L3.577 6.354c.162-.582.43-1.13.792-1.614l2.844 2.844L8.816 5.98a.851.851 0 0 1 1.204 0l3.025 3.035a4.87 4.87 0 0 1-.785 1.615z" fill="url(#a)" fill-rule="nonzero" transform="translate(0 -1)"/></g></svg>