<svg width="16" height="14" xmlns="http://www.w3.org/2000/svg"><g fill="none" fill-rule="evenodd"><path d="M0-1h16v16H0z"/><g fill-rule="nonzero"><path d="M2 .087C1.573.087 0 1.597 0 2v8c0 .42 1.573 2 2 2l4.4-.17 1.333 1.925c.036.087.143.14.25.14.106 0 .195-.07.248-.14l1.387-1.925L14 12c.409 0 1.982-1.58 1.982-2V2c0-.403-1.573-1.913-1.982-1.913H2z" fill="#FFF"/><path d="M7.986 7c1.45 0 2.684.663 3.01 1.531.036.183-.181.366-.508.366H5.52c-.326 0-.58-.183-.508-.366C5.302 7.663 6.5 7 7.986 7zM4 5a1 1 0 1 1 0-2 1 1 0 0 1 0 2zm8 0a1 1 0 1 1 0-2 1 1 0 0 1 0 2z" fill="#F97B71"/></g></g></svg>