<?xml version="1.0" encoding="UTF-8"?>
<svg width="16px" height="16px" viewBox="0 0 16 16" version="1.1" xmlns="http://www.w3.org/2000/svg" xmlns:xlink="http://www.w3.org/1999/xlink">
    <!-- Generator: Sketch 48.1 (47250) - http://www.bohemiancoding.com/sketch -->
    <title>Shape</title>
    <desc>Created with Sketch.</desc>
    <defs></defs>
    <g id="GrumpyReport_1440" stroke="none" stroke-width="1" fill="none" fill-rule="evenodd" transform="translate(-1079.000000, -6396.000000)">
        <g id="Content" transform="translate(110.000000, 90.000000)" fill="#F86A60" fill-rule="nonzero">
            <g id="Geographical-Observation-Grumpy" transform="translate(0.000000, 5584.000000)">
                <g id="Buttons-under-the-Grumpy-Map" transform="translate(775.000000, 701.000000)">
                    <g id="Button-Share-Click" transform="translate(112.000000, 0.000000)">
                        <g id="Group-11" transform="translate(31.000000, 16.000000)">
                            <path d="M63.8000075,14.600015 C62.840006,14.600015 61.9872172,15.0328032 61.4000038,15.7048042 L57.3264099,13.6688135 C57.3736225,13.4536007 57.4000225,13.2304004 57.4000225,13 C57.4000225,12.7695996 57.3736225,12.5471868 57.3264099,12.330399 L61.4000038,10.2944083 C61.9872172,10.9664093 62.840006,11.4000225 63.8000075,11.4000225 C65.5640103,11.4000225 67,9.96403276 67,8.20003 C67.0000375,6.43520224 65.5640103,5 63.8000075,5 C62.0360047,5 60.600015,6.43520224 60.600015,8.1999925 C60.600015,8.42960536 60.626415,8.65280571 60.6736276,8.86880605 L56.6000338,10.9047967 C56.0128203,10.2335832 55.1600315,9.8000075 54.20003,9.8000075 C52.4359897,9.8000075 51,11.2352097 51,13 C51,14.7640028 52.4359897,16.1999925 54.1999925,16.1999925 C55.159994,16.1999925 56.0127828,15.7655918 56.5999962,15.0935908 L60.6735901,17.1304065 C60.6263775,17.3471943 60.5999775,17.5703946 60.5999775,17.8000075 C60.5999775,19.5640103 62.0359672,21 63.79997,21 C65.5639728,21 66.9999625,19.5640103 66.9999625,17.8000075 C67.0000375,16.0360047 65.5640103,14.600015 63.8000075,14.600015 Z" id="Shape"></path>
                        </g>
                    </g>
                </g>
            </g>
        </g>
    </g>
</svg>